<?xml version="1.0" standalone="no"?>
<!DOCTYPE svg PUBLIC "-//W3C//DTD SVG 20010904//EN"
 "http://www.w3.org/TR/2001/REC-SVG-20010904/DTD/svg10.dtd">
<svg version="1.0" xmlns="http://www.w3.org/2000/svg"
 width="500.000000pt" height="500.000000pt" viewBox="0 0 500.000000 500.000000"
 preserveAspectRatio="xMidYMid meet">

<g transform="translate(0.000000,500.000000) scale(0.100000,-0.100000)"
fill="#000000" stroke="none">
<path d="M2288 4990 c-593 -54 -1127 -302 -1548 -720 -398 -395 -644 -891
-721 -1460 -17 -123 -17 -497 0 -620 37 -275 119 -546 238 -787 533 -1086
1745 -1630 2913 -1309 667 183 1237 649 1555 1271 132 258 219 543 256 840 16
129 16 462 0 590 -146 1152 -1038 2045 -2181 2185 -121 15 -398 20 -512 10z
m567 -69 c482 -71 920 -278 1287 -608 426 -383 700 -903 784 -1488 24 -164 24
-486 0 -650 -78 -546 -316 -1024 -699 -1408 -386 -385 -868 -621 -1427 -698
-140 -20 -487 -17 -635 5 -812 118 -1508 620 -1860 1341 -127 260 -195 486
-236 785 -20 139 -17 486 4 635 94 646 421 1208 937 1606 370 286 796 451
1284 499 131 13 410 3 561 -19z"/>
<path d="M2520 4748 c0 -33 -3 -39 -12 -30 -36 36 -88 -7 -88 -71 0 -67 42
-103 91 -77 13 7 19 7 19 0 0 -5 7 -10 15 -10 12 0 15 19 15 115 0 108 -1 115
-20 115 -17 0 -20 -7 -20 -42z m-4 -77 c14 -26 6 -71 -12 -78 -23 -8 -44 17
-44 51 0 55 34 71 56 27z"/>
<path d="M2683 4673 c-8 -73 -8 -110 -1 -114 22 -14 132 -19 139 -7 12 19 3
25 -51 30 -28 3 -52 7 -54 9 -2 2 -2 17 1 32 5 28 7 28 53 22 37 -5 49 -3 53
8 7 20 -1 27 -32 27 -51 0 -68 10 -63 35 4 22 7 23 56 18 43 -4 54 -2 59 11 7
18 -4 21 -94 31 l-55 6 -11 -108z"/>
<path d="M2305 4711 c-3 -6 -17 -8 -31 -5 -23 6 -24 4 -24 -37 0 -79 11 -119
31 -119 17 0 18 7 16 61 -2 48 2 64 15 72 24 16 32 3 38 -61 4 -44 9 -58 23
-60 14 -3 17 4 17 50 0 67 -17 102 -52 106 -14 2 -29 -2 -33 -7z"/>
<path d="M2112 4684 c-23 -16 -30 -44 -11 -44 6 0 17 7 25 15 19 19 40 19 47
1 4 -10 -7 -19 -32 -30 -41 -16 -55 -37 -46 -67 8 -23 52 -36 75 -21 10 6 28
8 40 5 20 -5 22 -3 16 23 -3 16 -8 47 -12 69 -4 22 -11 46 -17 53 -13 17 -58
15 -85 -4z m68 -94 c0 -24 -26 -38 -42 -22 -8 8 -8 15 2 27 18 21 40 19 40 -5z"/>
<path d="M3078 4689 c-10 -5 -18 -17 -18 -25 0 -8 -4 -13 -9 -10 -5 3 -12 -2
-15 -11 -4 -9 -2 -19 3 -23 6 -3 4 -25 -6 -60 -15 -50 -14 -54 3 -67 33 -24
62 -5 34 23 -13 13 9 94 26 94 19 0 29 21 14 30 -8 5 -10 17 -6 34 7 28 1 31
-26 15z"/>
<path d="M2875 4668 c-30 -135 -30 -138 -6 -138 15 0 21 10 26 43 10 57 22 77
46 77 20 0 21 -4 14 -70 -6 -59 -5 -70 8 -70 19 0 26 19 34 89 6 67 -8 87 -57
77 -17 -3 -30 -1 -30 4 0 20 -30 9 -35 -12z"/>
<path d="M1891 4637 c-6 -8 -21 -13 -31 -10 -25 7 -25 -8 -3 -93 14 -50 21
-64 36 -64 15 0 18 5 13 23 -17 58 -18 114 -4 120 24 9 34 -5 52 -65 13 -44
20 -56 32 -51 19 7 12 58 -14 113 -19 39 -60 52 -81 27z"/>
<path d="M3145 4617 c-2 -6 -14 -41 -26 -75 -19 -54 -20 -65 -8 -73 15 -9 39
14 39 38 0 8 7 27 15 43 11 21 22 29 38 27 14 -1 22 3 22 13 0 9 -9 15 -22 14
-13 0 -23 3 -23 7 0 13 -31 19 -35 6z"/>
<path d="M1573 4584 c-8 -20 8 -36 26 -25 15 10 8 41 -9 41 -6 0 -13 -7 -17
-16z"/>
<path d="M1702 4574 c-31 -21 -30 -84 1 -118 49 -55 127 -25 127 49 0 68 -73
108 -128 69z m72 -30 c21 -21 21 -73 0 -81 -23 -9 -46 8 -57 41 -15 46 24 74
57 40z"/>
<path d="M3241 4553 c-41 -52 -41 -95 1 -126 22 -17 33 -19 55 -11 34 12 27
29 -12 29 -23 0 -31 5 -33 23 -4 26 3 27 51 7 41 -17 47 -13 47 36 0 66 -70
93 -109 42z m63 -9 c9 -3 16 -15 16 -25 0 -22 0 -22 -35 -9 -23 9 -25 13 -15
25 14 17 13 17 34 9z"/>
<path d="M1497 4534 c-8 -29 -3 -74 8 -74 6 0 22 -25 38 -55 28 -57 36 -62 67
-45 21 11 16 42 -5 34 -18 -7 -62 76 -46 86 7 3 9 14 5 23 -3 9 -10 14 -15 11
-5 -3 -18 5 -28 17 -18 22 -19 22 -24 3z"/>
<path d="M1596 4531 c-10 -15 56 -150 71 -144 18 7 17 19 -13 91 -25 57 -45
75 -58 53z"/>
<path d="M3360 4430 c-46 -92 -49 -100 -32 -109 16 -8 22 -4 36 26 17 36 17
36 32 14 8 -11 23 -21 33 -21 29 0 68 37 81 76 15 44 -7 84 -45 84 -14 0 -25
4 -25 9 0 5 -7 11 -15 15 -11 4 -28 -20 -65 -94z m110 35 c11 -13 10 -22 -3
-50 -25 -53 -77 -45 -63 10 6 24 31 55 45 55 5 0 14 -7 21 -15z"/>
<path d="M1392 4430 c-21 -19 -31 -60 -15 -60 4 0 17 12 29 28 18 22 25 25 35
15 10 -10 8 -18 -14 -41 -29 -30 -35 -60 -15 -80 17 -17 54 -15 74 5 9 10 23
18 31 19 26 4 25 10 -12 73 -30 51 -40 61 -64 61 -15 0 -37 -9 -49 -20z m88
-84 c0 -31 -16 -42 -36 -25 -13 10 -12 14 2 30 23 26 34 24 34 -5z"/>
<path d="M3564 4438 c-6 -7 -25 -38 -42 -69 -27 -47 -30 -58 -18 -68 11 -9 20
-2 45 40 27 43 36 50 55 45 14 -3 28 0 35 8 13 16 5 26 -22 26 -11 0 -25 7
-31 16 -10 13 -14 13 -22 2z"/>
<path d="M2355 4389 c-768 -59 -1424 -575 -1658 -1304 -208 -647 -61 -1343
390 -1850 160 -180 345 -319 568 -429 208 -103 379 -156 595 -187 123 -18 403
-15 530 5 537 84 989 371 1292 821 483 716 417 1668 -159 2317 -324 365 -773
585 -1278 628 -131 11 -134 11 -280 -1z m340 -55 c338 -32 700 -183 970 -404
83 -68 243 -232 302 -310 351 -463 465 -1070 306 -1625 -92 -323 -242 -574
-484 -812 -146 -143 -261 -227 -430 -317 -411 -218 -919 -270 -1371 -140 -544
157 -990 560 -1202 1087 -150 374 -172 809 -61 1196 175 606 655 1088 1258
1262 239 69 450 88 712 63z"/>
<path d="M2483 4278 c-6 -7 -76 -133 -157 -280 l-148 -268 -334 0 c-184 0
-334 -2 -334 -4 0 -3 59 -112 132 -243 72 -131 147 -267 166 -303 l35 -65
-161 -285 -162 -285 551 -3 c405 -1 555 1 566 9 11 9 12 8 7 -5 -5 -14 -32
-16 -235 -16 -126 0 -229 -3 -229 -6 0 -3 11 -24 24 -47 236 -417 290 -513
296 -520 7 -8 29 29 123 203 16 30 33 60 37 65 4 6 26 44 48 85 22 41 60 110
84 153 l43 78 323 -1 c177 0 322 3 322 6 0 14 -315 569 -330 582 -8 8 -10 11
-4 8 6 -3 26 25 46 62 20 37 92 171 162 297 l125 230 -364 3 c-232 1 -365 6
-365 12 0 6 12 10 26 10 34 0 37 -7 -103 235 -180 309 -179 307 -190 293z m31
-98 c16 -6 26 -17 26 -30 0 -28 -25 -35 -55 -16 -21 14 -24 20 -15 36 12 23
11 23 44 10z m-57 -60 c-3 -11 -1 -20 4 -20 5 0 9 5 9 10 0 6 4 10 10 10 5 0
7 -7 4 -15 -7 -18 7 -20 24 -3 14 14 16 -1 2 -22 -8 -12 -14 -12 -45 3 -31 15
-34 20 -25 37 14 26 24 26 17 0z m127 -38 c3 -5 -11 -16 -30 -25 -47 -23 -52
-21 -23 7 25 25 44 32 53 18z m-102 -25 c11 -17 4 -31 -18 -36 -16 -3 -17 -1
-5 13 12 14 10 15 -18 10 -27 -6 -31 -4 -31 16 0 20 4 22 32 16 18 -3 36 -12
40 -19z m124 -9 c9 -14 -31 -48 -57 -48 -28 0 -23 23 9 42 32 21 39 22 48 6z
m-176 -23 c17 -9 30 -17 30 -19 0 -20 -17 -36 -38 -36 -24 0 -25 -1 -7 -14 18
-13 18 -14 -2 -31 -12 -10 -19 -24 -16 -31 9 -25 -13 -15 -35 16 -12 16 -22
31 -22 34 0 3 17 2 38 -1 l37 -5 -30 21 -30 21 23 6 c18 5 21 9 10 16 -14 10
4 8 47 -6 11 -4 5 1 -12 10 -18 10 -33 21 -33 26 0 11 7 10 40 -7z m200 -26
c0 -5 -4 -8 -9 -5 -5 3 -11 -2 -13 -12 -4 -15 -1 -18 18 -14 18 3 24 0 24 -14
0 -16 -2 -17 -10 -4 -8 13 -10 13 -10 -2 0 -23 -33 -41 -48 -26 -8 8 -9 15 -1
25 9 10 7 13 -10 13 -22 0 -28 14 -11 25 6 3 10 1 10 -4 0 -6 5 -11 11 -11 6
0 9 6 6 14 -3 8 -3 17 0 20 10 10 43 7 43 -5z m50 -96 c0 -10 -42 -53 -53 -53
-5 0 -7 7 -3 15 3 9 0 15 -9 15 -21 0 -19 18 3 23 28 8 62 8 62 0z m-340 -12
c0 -5 -5 -11 -12 -13 -17 -6 0 -28 23 -28 21 0 26 16 7 23 -7 2 -10 8 -6 12 4
4 14 2 23 -5 23 -19 1 -54 -31 -46 -13 4 -24 2 -24 -3 0 -5 10 -12 23 -14 l22
-4 -23 -8 c-18 -6 -20 -10 -11 -21 21 -26 -3 -17 -59 21 -9 7 13 35 27 35 14
0 17 7 13 30 -3 23 0 30 12 30 9 0 16 -4 16 -9z m385 -74 c-10 -24 -61 -39
-75 -22 -7 8 -9 18 -6 24 3 5 0 12 -6 15 -7 3 -4 4 8 1 11 -3 29 1 40 9 15 12
22 12 32 2 7 -7 10 -20 7 -29z m-420 -47 c22 -25 13 -50 -19 -50 -32 0 -53 34
-35 56 16 19 33 18 54 -6z m435 -30 c0 -6 -77 -11 -196 -12 l-196 -3 -106
-192 c-58 -106 -107 -191 -110 -189 -5 5 186 364 206 389 13 15 37 17 209 17
119 0 193 -4 193 -10z m-477 -65 c21 -15 20 -15 -20 -9 -36 5 -43 4 -43 -10 0
-9 4 -16 8 -16 5 0 17 -7 28 -16 19 -15 19 -15 -1 -11 -11 3 -28 8 -37 12 -27
11 -21 -10 7 -25 14 -7 23 -15 20 -18 -5 -5 -65 18 -65 25 0 2 9 22 20 44 13
24 25 37 32 33 7 -5 9 -2 5 8 -8 21 5 32 15 14 5 -9 19 -22 31 -31z m-546 28
c15 -6 13 -9 -12 -14 -23 -5 -17 -7 30 -9 33 -1 64 -2 69 -1 5 1 17 -6 27 -15
11 -10 22 -14 26 -11 3 4 1 7 -5 7 -7 0 -12 5 -12 10 0 6 44 10 113 10 l113 0
-4 -35 c-5 -40 -9 -42 -28 -17 -11 14 -15 14 -23 3 -10 -15 -26 3 -16 19 3 6
-1 10 -9 10 -10 0 -16 -9 -16 -25 0 -23 -3 -25 -27 -19 -39 9 -45 14 -39 30 3
8 -1 14 -9 14 -9 0 -15 -10 -15 -25 0 -14 -4 -25 -10 -25 -5 0 -10 5 -10 10 0
6 -11 8 -26 4 -20 -5 -26 -2 -31 15 -7 29 -23 26 -23 -4 0 -14 -4 -25 -10 -25
-5 0 -10 5 -10 10 0 6 -11 8 -25 4 -14 -3 -25 -2 -24 2 1 5 1 17 0 27 -2 27
-21 10 -21 -19 0 -35 -23 -26 -31 12 -10 52 13 74 58 57z m920 0 c16 -6 15 -8
-7 -14 -14 -4 27 -7 91 -8 95 -1 118 2 123 14 6 16 41 20 51 6 3 -5 -5 -12
-17 -14 -13 -2 66 -5 175 -6 l197 -1 -6 -27 c-11 -53 -11 -53 -43 -37 -19 10
-28 20 -24 29 3 8 0 15 -6 15 -6 0 -11 -14 -11 -32 l0 -32 -20 22 c-25 26 -42
29 -33 5 4 -11 3 -14 -5 -9 -20 12 -13 34 11 39 16 3 13 5 -10 6 -30 1 -33 -1
-33 -30 0 -17 -4 -28 -10 -24 -5 3 -10 17 -10 31 0 13 -4 24 -10 24 -5 0 -10
-12 -10 -27 0 -23 -5 -28 -26 -30 -21 -1 -29 5 -37 28 -14 36 -27 37 -27 3 0
-20 -4 -25 -16 -20 -9 3 -23 6 -31 6 -10 0 -14 6 -10 20 3 13 0 20 -9 20 -9 0
-14 -12 -15 -32 l-1 -33 -12 33 c-12 34 -26 34 -26 0 0 -15 -5 -18 -22 -13
-35 11 -45 24 -28 35 13 8 12 10 -2 10 -10 0 -18 -6 -18 -12 0 -24 -16 -39
-34 -32 -11 4 -15 13 -11 25 4 11 2 19 -4 19 -6 0 -11 -13 -11 -30 0 -29 0
-29 -32 -15 -19 8 -32 21 -32 29 1 9 -2 16 -7 16 -5 0 -9 -14 -9 -31 0 -16 -4
-28 -9 -25 -13 9 -20 69 -9 89 10 19 17 20 45 10z m-742 -113 c10 -17 -25 -24
-41 -9 -12 13 -11 15 11 17 13 1 27 -3 30 -8z m264 -17 c-13 -15 -12 -15 9 -4
27 14 55 -1 45 -25 -7 -18 -33 -18 -60 1 -24 17 -21 45 4 45 13 0 13 -2 2 -17z
m732 -72 c-9 -16 -8 -18 12 -14 15 3 11 -2 -13 -16 -45 -26 -53 -26 -39 1 9
17 9 20 -2 16 -8 -3 -20 1 -27 8 -10 11 -5 17 25 33 32 16 39 17 46 5 4 -7 3
-22 -2 -33z m409 39 c0 -5 8 -6 17 -3 12 5 7 -12 -20 -61 -30 -53 -35 -71 -26
-82 13 -16 -4 -44 -27 -44 -8 0 -25 -18 -39 -40 l-25 -39 -25 23 c-25 23 -34
43 -15 31 6 -3 15 -3 22 1 8 5 6 10 -8 15 -18 7 -17 8 3 8 12 1 25 -4 28 -9 7
-12 25 -4 25 11 0 5 -11 9 -24 9 -28 0 -41 24 -21 40 18 15 45 6 45 -15 0 -9
5 -13 10 -10 17 10 11 24 -17 40 l-28 16 40 -6 c37 -5 39 -4 21 10 -11 8 -23
15 -28 15 -4 0 -8 5 -8 11 0 6 6 9 13 6 6 -3 21 -8 32 -12 19 -6 19 -6 3 8
-10 8 -18 17 -18 21 0 11 28 6 33 -6 2 -8 8 -9 13 -4 5 5 -1 15 -13 23 -22 15
-34 41 -13 28 6 -3 15 -3 22 1 8 5 6 10 -8 15 -16 6 -15 8 9 8 15 1 27 -3 27
-9z m-1150 -10 c0 -5 9 -10 20 -10 11 0 20 -4 20 -10 0 -5 -10 -10 -21 -10
-18 0 -19 -2 -9 -15 16 -19 7 -19 -30 0 -33 17 -36 25 -18 43 15 15 38 16 38
2z m301 -100 l7 -65 -2 68 c-1 48 3 67 12 67 8 0 12 -21 12 -70 0 -40 4 -70
10 -70 6 0 10 30 10 69 l0 70 112 -2 111 -2 44 -73 c24 -41 43 -80 43 -87 0
-7 -24 -30 -52 -51 -29 -21 -55 -39 -57 -41 -2 -2 -1 -6 2 -10 4 -3 31 10 62
30 30 21 59 37 65 37 14 0 12 -17 -2 -23 -7 -3 -4 -6 7 -6 14 -1 33 -24 63
-76 l42 -75 -52 -90 c-29 -50 -58 -90 -63 -90 -6 0 -33 14 -59 30 -27 17 -53
29 -60 27 -6 -2 15 -20 47 -41 31 -20 57 -43 57 -51 0 -8 -4 -15 -8 -15 -5 0
-9 -6 -9 -13 0 -8 -16 -42 -37 -75 l-37 -62 -88 0 c-54 0 -91 4 -99 12 -9 9
-12 9 -12 0 0 -7 -4 -12 -10 -12 -6 0 -10 30 -10 70 0 40 -4 70 -10 70 -6 0
-10 -30 -10 -70 0 -49 -4 -70 -12 -70 -9 0 -13 19 -12 67 l2 68 -7 -65 -6 -65
-85 -2 -85 -3 -42 77 c-24 42 -43 82 -43 88 0 7 25 29 56 50 31 22 52 41 46
43 -6 2 -31 -10 -56 -27 -25 -17 -51 -31 -58 -31 -8 0 -37 40 -66 89 l-53 89
42 76 c31 55 49 76 63 77 20 0 20 1 2 8 -14 5 -16 10 -7 15 7 5 36 -7 72 -29
33 -20 63 -34 66 -31 4 3 4 7 2 9 -2 1 -30 22 -62 46 -55 40 -57 44 -44 64 7
12 26 45 42 72 45 79 40 76 129 73 l81 -3 6 -65z m-355 45 c-7 -18 5 -20 23
-2 11 10 12 8 6 -10 -4 -14 -2 -23 4 -23 6 0 11 5 11 10 0 6 5 10 10 10 12 0
13 -10 0 -30 -8 -12 -14 -12 -45 3 -31 15 -34 20 -25 37 12 23 25 27 16 5z
m-303 -6 c-6 -6 -8 -20 -5 -31 4 -15 7 -17 14 -6 7 9 8 8 6 -7 -2 -11 -11 -19
-20 -19 -10 1 -14 -4 -11 -12 6 -17 9 -17 35 -3 30 16 36 0 8 -21 -26 -20 -12
-27 19 -10 16 8 18 6 16 -20 -1 -17 -5 -33 -9 -37 -14 -14 -5 -23 13 -13 28
14 34 13 27 -7 -4 -9 -1 -20 6 -25 10 -6 9 -12 -6 -23 -29 -22 -61 -13 -62 17
-1 13 -22 63 -47 110 -44 80 -57 116 -39 104 4 -2 14 -1 22 5 22 13 47 12 33
-2z m1145 -27 c2 -12 -1 -22 -7 -22 -6 0 -11 7 -11 15 0 17 -26 20 -36 4 -3
-6 0 -15 7 -20 18 -11 4 -23 -16 -15 -23 8 -15 38 15 53 32 16 44 12 48 -15z
m42 -2 c6 -11 8 -20 6 -20 -3 0 -10 9 -16 20 -6 11 -8 20 -6 20 3 0 10 -9 16
-20z m-883 -22 c13 -12 23 -26 23 -31 0 -11 -61 1 -75 15 -7 7 0 8 20 4 29 -7
29 -7 11 13 -25 28 -9 27 21 -1z m873 -26 c0 -10 -6 -24 -12 -31 -11 -11 -9
-12 8 -3 24 13 34 7 34 -19 0 -10 -14 -25 -32 -33 -37 -19 -46 -20 -30 -4 18
18 14 27 -10 21 -22 -4 -23 -4 -4 11 19 16 19 16 -2 16 -27 0 -39 25 -22 45
18 22 70 20 70 -3z m-899 -18 c17 -8 29 -18 26 -20 -6 -6 -67 23 -67 31 0 8
10 6 41 -11z m-11 -19 c36 -18 39 -35 8 -35 -18 0 -20 -2 -8 -10 8 -5 12 -11
9 -14 -3 -3 -20 5 -39 17 l-35 22 28 3 c27 3 28 4 10 17 -24 19 -9 19 27 0z
m980 -25 c6 -11 8 -20 6 -20 -3 0 -10 9 -16 20 -6 11 -8 20 -6 20 3 0 10 -9
16 -20z m-1015 -32 c25 -11 34 -41 15 -53 -11 -7 -75 24 -66 32 3 4 17 0 31
-7 14 -7 28 -10 32 -5 5 4 3 10 -3 12 -16 6 -50 32 -42 33 4 0 19 -5 33 -12z
m1000 -13 c0 -11 8 -23 18 -27 9 -4 17 -14 17 -22 0 -20 -46 -50 -65 -42 -20
7 -19 36 2 51 16 12 13 14 -20 20 l-39 8 29 18 c34 23 58 21 58 -6z m-1049
-47 c8 -16 13 -28 10 -28 -5 0 -46 69 -46 78 0 8 15 -13 36 -50z m1104 22 c6
-11 8 -20 6 -20 -3 0 -10 9 -16 20 -6 11 -8 20 -6 20 3 0 10 -9 16 -20z m5
-71 c7 -22 -7 -39 -32 -39 -7 0 -13 -5 -13 -10 0 -7 13 -8 35 -4 43 8 44 -3 4
-42 -29 -27 -31 -27 -25 -6 6 16 3 22 -9 22 -22 0 -30 27 -14 47 12 14 11 15
-9 9 -34 -11 -26 8 11 27 42 21 44 21 52 -4z m40 -9 c9 -16 13 -30 11 -30 -3
0 -12 14 -21 30 -9 17 -13 30 -11 30 3 0 12 -13 21 -30z m-1165 -9 c0 -5 -9
-13 -20 -16 -11 -3 -20 -13 -20 -22 0 -11 5 -13 18 -8 40 17 57 11 57 -20 0
-24 -4 -29 -20 -27 -11 2 -23 9 -27 15 -5 8 -8 8 -8 1 0 -5 6 -19 14 -29 12
-17 18 -18 40 -7 32 14 34 0 4 -21 -28 -18 -18 -33 11 -16 11 7 24 10 28 6 4
-5 1 -12 -6 -16 -11 -7 -10 -10 3 -18 11 -6 14 -16 10 -26 -3 -9 -10 -14 -15
-11 -5 3 -9 -2 -9 -10 0 -8 5 -18 10 -21 6 -3 10 1 10 9 0 31 42 30 54 -1 8
-20 -13 -46 -31 -38 -9 3 -13 0 -10 -7 5 -14 11 -14 40 -3 24 10 22 -12 -3
-25 -12 -6 -17 -16 -13 -26 5 -15 7 -15 15 0 12 21 32 21 24 0 -4 -11 -1 -14
12 -10 15 5 17 1 14 -28 -3 -26 -8 -33 -20 -29 -10 4 -13 2 -8 -5 4 -7 4 -12
-1 -12 -4 0 -50 78 -102 174 -52 96 -98 173 -101 171 -11 -7 -35 14 -35 32 0
21 17 43 27 36 5 -2 16 1 25 6 23 13 33 14 33 2z m1190 -93 c0 -5 -6 -8 -12
-5 -7 2 -26 -2 -41 -10 -40 -20 -45 -9 -8 13 17 10 31 22 31 27 0 5 7 4 15 -3
8 -7 15 -17 15 -22z m17 -35 c3 -10 13 -26 22 -36 15 -18 14 -20 -8 -38 -32
-26 -60 -24 -71 5 -5 13 -14 27 -19 31 -18 11 -12 24 17 39 36 20 51 20 59 -1z
m-1267 -55 c0 -4 -10 -8 -22 -8 -16 0 -19 -3 -10 -8 15 -10 7 -38 -14 -46 -8
-3 -11 -12 -7 -23 4 -12 -4 -9 -25 11 -18 17 -32 33 -32 38 0 5 19 6 43 3 l42
-6 -35 20 c-33 20 -34 21 -12 27 18 5 20 9 10 21 -9 11 -3 10 25 -3 20 -10 37
-21 37 -26z m1087 7 c-9 -21 10 -28 22 -8 9 16 10 16 11 2 0 -23 -26 -31 -44
-14 -8 8 -21 15 -28 16 -7 0 -4 4 7 9 30 13 38 12 32 -5z m-21 -60 c-3 -9 -14
-15 -23 -13 -22 4 -30 38 -11 49 18 11 43 -15 34 -36z m259 -5 c3 -5 -8 -16
-24 -25 -42 -21 -48 -19 -20 9 27 27 35 30 44 16z m-1395 -58 c0 -11 -58 -3
-66 9 -3 5 2 9 12 9 13 0 14 3 5 13 -6 8 -8 17 -5 20 7 7 54 -38 54 -51z
m1130 26 c0 -5 0 -12 0 -18 0 -15 -22 -12 -52 8 l-28 18 40 0 c22 -1 40 -4 40
-8z m288 -15 c-2 -10 -13 -22 -24 -28 -11 -6 -19 -16 -16 -23 6 -18 19 -14 25
8 3 11 12 20 20 20 18 0 32 -18 22 -28 -4 -4 -10 -1 -13 6 -3 10 -8 7 -16 -9
-16 -32 -34 -35 -45 -6 -5 14 -16 27 -23 30 -10 4 -11 7 0 18 10 11 12 11 13
-1 0 -8 4 -5 9 8 11 27 53 31 48 5z m-1457 -31 c15 -13 20 -25 16 -37 -7 -17
-14 -17 -62 0 -11 3 -8 -1 8 -10 15 -8 27 -20 27 -26 0 -6 -4 -7 -10 -4 -20
12 -32 -7 -13 -21 28 -21 2 -16 -32 6 -23 15 -25 20 -12 20 13 0 17 5 13 18
-9 28 8 46 32 33 42 -22 45 -4 5 21 -19 12 -23 18 -12 18 9 0 27 -8 40 -18z
m1116 4 c-8 -20 4 -28 20 -15 9 9 13 8 13 0 0 -20 -30 -24 -49 -7 -10 9 -24
16 -32 17 -8 1 -3 5 11 9 37 12 43 11 37 -4z m86 -41 c-3 -9 -8 -14 -10 -11
-3 3 -2 9 2 15 9 16 15 13 8 -4z m283 -31 c-28 -25 -51 -27 -51 -6 0 20 58 53
70 41 7 -7 1 -18 -19 -35z m-402 -19 c27 -11 36 -21 35 -38 -1 -17 -2 -18 -6
-4 -7 25 -16 21 -37 -17 l-18 -34 -32 22 -32 21 22 17 c28 23 44 23 44 1 0
-15 2 -16 10 -3 7 11 3 18 -15 28 -48 25 -26 30 29 7z m-1149 -17 c26 -12 30
-24 16 -47 -8 -12 -14 -13 -36 -3 -37 17 -46 14 -12 -4 15 -8 27 -21 27 -28 0
-8 -12 -17 -27 -21 -16 -4 -22 -10 -15 -12 6 -3 12 -9 12 -14 0 -5 -13 -3 -30
6 -40 21 -42 -3 -2 -28 27 -18 27 -18 2 -12 -14 4 -33 7 -42 8 -22 2 -22 0 2
47 21 41 37 49 57 29 6 -6 17 -9 25 -6 8 3 3 9 -15 17 -28 14 -29 36 -5 68 13
15 11 15 43 0z m1610 -6 c-6 -4 -23 -18 -38 -32 -27 -23 -29 -23 -25 -5 2 12
-2 19 -9 18 -20 -4 -15 15 5 20 29 8 76 7 67 -1z m-1265 -32 c6 -11 8 -20 6
-20 -3 0 -10 9 -16 20 -6 11 -8 20 -6 20 3 0 10 -9 16 -20z m1285 -68 c-21
-18 -30 -20 -46 -11 -11 6 -18 17 -15 24 3 8 2 16 -2 18 -4 2 -1 2 6 0 8 -1
23 4 35 12 20 14 23 14 35 -2 11 -16 9 -21 -13 -41z m-1496 -8 c7 9 18 16 23
16 6 0 6 -6 -1 -14 -11 -13 -6 -46 8 -46 4 0 12 14 18 30 14 39 28 38 42 -1
14 -42 14 -44 -4 -29 -12 10 -19 10 -27 2 -17 -17 -48 -15 -55 4 -6 15 -8 15
-20 -2 -12 -16 -13 -14 -12 22 0 27 3 33 8 21 6 -17 8 -17 20 -3z m143 -14
c-6 -41 -22 -49 -22 -11 0 16 -6 32 -12 34 -7 3 -1 6 13 6 23 1 25 -2 21 -29z
m64 15 c13 17 14 15 13 -21 -1 -21 -3 -31 -6 -21 -6 21 -33 23 -33 1 0 -8 -4
-13 -9 -10 -7 5 -8 24 -2 61 1 6 7 1 13 -9 11 -19 11 -19 24 -1z m60 -2 c13
-17 13 -17 14 0 0 9 7 17 15 17 10 0 15 -11 16 -32 l0 -33 16 33 c20 39 26 40
41 7 17 -36 15 -50 -3 -35 -12 10 -19 10 -27 2 -16 -16 -48 -15 -49 1 0 10 -2
10 -6 0 -7 -19 -23 -16 -24 5 0 14 -2 14 -9 -3 -7 -16 -9 -13 -9 18 -1 41 5
46 25 20z m153 0 c10 -17 10 -17 11 0 0 9 5 17 10 17 6 0 10 -16 10 -35 0 -38
-13 -46 -29 -17 -10 16 -10 16 -11 0 0 -10 -4 -18 -10 -18 -5 0 -10 16 -10 35
0 38 13 46 29 18z m96 7 c5 -8 11 -8 20 0 11 9 14 5 17 -17 4 -36 21 -35 29 3
6 28 7 27 8 -8 1 -34 -2 -38 -24 -38 -17 0 -25 6 -25 18 -1 16 -1 16 -14 0 -7
-10 -25 -18 -40 -18 -23 0 -26 4 -26 35 0 30 3 35 24 35 14 0 28 -5 31 -10z
m425 -1 c0 -5 5 -7 10 -4 6 3 10 0 10 -7 -1 -17 -39 -67 -40 -50 0 7 -11 17
-25 24 -25 11 -25 31 0 21 8 -3 15 0 15 5 0 6 -8 13 -17 15 -10 3 -3 5 15 6
17 0 32 -4 32 -10z m181 -3 c1 14 3 13 8 -6 12 -40 1 -57 -20 -31 l-18 21 -4
-22 c-3 -14 -5 -7 -6 16 -1 38 -1 39 19 21 19 -17 20 -17 21 1z m67 7 c-10 -2
-18 -9 -18 -14 0 -5 8 -10 18 -10 16 -1 16 -2 0 -6 -24 -6 -23 -23 2 -23 16 0
20 7 20 31 0 27 3 30 27 27 35 -4 45 -37 14 -45 -12 -3 -21 -9 -21 -14 0 -5
-18 -9 -40 -9 -39 0 -40 1 -40 35 0 32 3 35 28 34 16 -1 20 -3 10 -6z m137
-24 c17 -32 13 -51 -7 -31 -9 9 -15 9 -25 0 -7 -6 -16 -8 -19 -5 -6 5 23 67
31 67 2 0 12 -14 20 -31z m60 -30 c17 -7 16 -8 -7 -8 -26 -1 -28 2 -27 37 1
35 2 35 8 8 3 -16 15 -33 26 -37z m-768 -11 c-3 -8 -6 -5 -6 6 -1 11 2 17 5
13 3 -3 4 -12 1 -19z m243 -73 c0 -9 6 -12 16 -8 10 4 4 -16 -20 -60 -27 -49
-34 -73 -30 -95 5 -22 2 -31 -13 -36 -14 -6 -16 -5 -5 5 14 15 16 29 4 29 -5
0 -21 -22 -36 -50 -15 -27 -30 -51 -34 -54 -4 -2 -21 7 -37 21 -27 22 -27 25
-7 20 15 -3 22 0 22 9 0 8 -5 14 -12 14 -6 0 -9 2 -6 5 9 10 37 -6 40 -23 3
-15 4 -15 11 1 5 13 0 21 -18 29 -13 6 -22 15 -19 20 3 4 9 6 14 3 5 -3 12 -1
15 5 4 6 16 8 28 5 21 -6 22 -6 3 9 -11 9 -23 16 -28 16 -4 0 -8 5 -8 11 0 6
7 8 15 5 8 -3 22 -9 30 -12 8 -3 15 -1 15 4 0 6 -9 14 -20 17 -11 3 -20 11
-20 17 0 5 7 7 15 4 41 -17 50 -17 28 -1 l-22 17 20 21 c15 17 22 19 28 9 6
-10 11 -9 22 4 12 16 12 17 -3 11 -12 -4 -18 -2 -18 8 0 8 -5 15 -11 15 -5 0
-7 5 -4 10 10 15 45 12 45 -5z m-396 -32 c-4 -21 -3 -24 5 -13 5 8 13 12 16 8
9 -9 -14 -50 -25 -43 -4 3 -10 0 -12 -7 -2 -6 -14 4 -25 23 l-22 33 27 12 c40
18 43 17 36 -13z m64 -109 c1 -32 -1 -36 -19 -31 -16 4 -18 3 -9 -9 9 -10 17
-11 32 -3 30 16 36 0 8 -22 -28 -22 -71 -21 -78 1 -4 12 -2 13 9 3 25 -24 29
-13 9 27 -25 48 -25 50 -1 50 11 0 23 5 26 10 12 20 22 9 23 -26z m62 -82 c0
-18 -32 -52 -49 -52 -18 0 -20 29 -1 35 10 3 21 12 24 20 8 21 26 19 26 -3z
m18 -53 c-29 -16 -23 -45 9 -44 18 0 29 -6 31 -18 5 -26 -28 -34 -47 -10 -9
11 -24 23 -33 26 -25 9 -22 32 5 45 30 14 59 16 35 1z m52 -131 c-1 -22 -1
-22 -15 -4 -8 11 -18 17 -21 13 -4 -4 -1 -13 5 -21 8 -9 8 -16 2 -20 -11 -7
-25 29 -16 44 3 5 15 10 26 10 13 0 19 -7 19 -22z"/>
<path d="M2480 4161 c0 -10 30 -24 37 -17 3 3 2 9 -2 15 -8 13 -35 15 -35 2z"/>
<path d="M2673 3823 c-7 -2 -13 -9 -13 -14 0 -14 26 -10 40 6 10 12 10 15 -1
14 -8 0 -20 -3 -26 -6z"/>
<path d="M2260 3756 c0 -14 29 -31 38 -22 2 3 2 12 -1 21 -8 19 -37 20 -37 1z"/>
<path d="M2997 3645 c-4 -8 -2 -17 3 -20 6 -4 10 3 10 14 0 25 -6 27 -13 6z"/>
<path d="M3200 3644 c0 -8 5 -12 10 -9 6 3 10 10 10 16 0 5 -4 9 -10 9 -5 0
-10 -7 -10 -16z"/>
<path d="M2175 3550 c-3 -5 -2 -10 4 -10 5 0 13 5 16 10 3 6 2 10 -4 10 -5 0
-13 -4 -16 -10z"/>
<path d="M2850 3515 c-14 -8 -20 -14 -15 -14 6 0 21 6 35 14 14 8 21 14 15 14
-5 0 -21 -6 -35 -14z"/>
<path d="M3176 3391 c-4 -7 -5 -15 -2 -18 9 -9 19 4 14 18 -4 11 -6 11 -12 0z"/>
<path d="M3246 3381 c-4 -7 -5 -15 -2 -18 9 -9 19 4 14 18 -4 11 -6 11 -12 0z"/>
<path d="M2125 3510 c3 -5 8 -10 11 -10 2 0 4 5 4 10 0 6 -5 10 -11 10 -5 0
-7 -4 -4 -10z"/>
<path d="M2759 3313 c-13 -16 -12 -17 4 -4 16 13 21 21 13 21 -2 0 -10 -8 -17
-17z"/>
<path d="M2455 3313 c-11 -2 -38 -16 -59 -31 -105 -72 -104 -230 1 -302 52
-36 154 -36 206 0 139 95 84 316 -83 333 -25 3 -54 3 -65 0z m145 -77 c0 -7
-7 -19 -15 -26 -11 -9 -15 -33 -15 -89 l1 -76 20 24 c11 13 22 21 25 19 12
-13 -11 -60 -42 -88 -50 -44 -111 -43 -160 3 -29 26 -37 42 -41 80 -6 54 2 58
34 20 l23 -28 -2 55 c-3 52 -4 55 -30 55 -38 1 -44 11 -23 35 17 18 26 20 84
15 38 -4 77 -2 91 4 35 14 50 13 50 -3z"/>
<path d="M2480 3131 c0 -39 -4 -53 -21 -65 l-21 -14 20 -11 c12 -6 32 -11 46
-11 26 0 26 1 26 75 0 73 -1 75 -25 75 -23 0 -25 -3 -25 -49z"/>
<path d="M2190 3267 c0 -3 12 -12 26 -22 15 -9 23 -12 20 -6 -7 11 -46 35 -46
28z"/>
<path d="M2731 3017 c2 -1 13 -9 24 -17 19 -14 19 -14 6 3 -7 9 -18 17 -24 17
-6 0 -8 -1 -6 -3z"/>
<path d="M2794 2976 c11 -9 24 -16 30 -16 12 0 7 5 -24 19 -24 11 -24 11 -6
-3z"/>
<path d="M1820 3320 c0 -5 5 -10 10 -10 6 0 10 5 10 10 0 6 -4 10 -10 10 -5 0
-10 -4 -10 -10z"/>
<path d="M1856 3247 c3 -10 9 -15 12 -12 3 3 0 11 -7 18 -10 9 -11 8 -5 -6z"/>
<path d="M2923 3393 c-7 -2 -13 -11 -13 -20 0 -20 34 -12 38 10 3 17 -3 20
-25 10z"/>
<path d="M2971 3334 c0 -11 3 -14 6 -6 3 7 2 16 -1 19 -3 4 -6 -2 -5 -13z"/>
<path d="M2996 3224 c-4 -11 0 -15 16 -12 12 2 23 9 26 16 6 18 -35 15 -42 -4z"/>
<path d="M3055 3180 c-3 -5 -1 -10 4 -10 6 0 11 5 11 10 0 6 -2 10 -4 10 -3 0
-8 -4 -11 -10z"/>
<path d="M1976 3107 c3 -10 9 -15 12 -12 3 3 0 11 -7 18 -10 9 -11 8 -5 -6z"/>
<path d="M2060 2931 c0 -5 5 -13 10 -16 6 -3 10 -2 10 4 0 5 -4 13 -10 16 -5
3 -10 2 -10 -4z"/>
<path d="M3140 3031 c0 -20 -3 -22 -12 -13 -18 18 -27 15 -21 -8 6 -23 10 -24
41 -7 20 12 21 15 7 32 -14 19 -14 19 -15 -4z"/>
<path d="M3147 2989 c-24 -14 -11 -32 14 -19 10 6 19 15 19 20 0 13 -10 12
-33 -1z"/>
<path d="M2935 2950 c-3 -5 1 -10 9 -10 9 0 16 5 16 10 0 6 -4 10 -9 10 -6 0
-13 -4 -16 -10z"/>
<path d="M3220 2879 c0 -5 5 -7 10 -4 6 3 10 8 10 11 0 2 -4 4 -10 4 -5 0 -10
-5 -10 -11z"/>
<path d="M1715 2720 c-3 -5 -1 -10 4 -10 6 0 11 5 11 10 0 6 -2 10 -4 10 -3 0
-8 -4 -11 -10z"/>
<path d="M1645 2661 c-3 -5 -1 -12 5 -16 5 -3 10 1 10 9 0 18 -6 21 -15 7z"/>
<path d="M3323 2663 c-7 -2 -13 -9 -13 -14 0 -14 26 -10 40 6 10 12 10 15 -1
14 -8 0 -20 -3 -26 -6z"/>
<path d="M2340 2614 c0 -16 5 -24 13 -22 18 7 20 35 2 41 -11 5 -15 0 -15 -19z"/>
<path d="M3090 2630 c0 -5 5 -10 10 -10 6 0 10 5 10 10 0 6 -4 10 -10 10 -5 0
-10 -4 -10 -10z"/>
<path d="M2610 2330 c0 -5 5 -10 11 -10 5 0 7 5 4 10 -3 6 -8 10 -11 10 -2 0
-4 -4 -4 -10z"/>
<path d="M2476 2171 c-4 -7 -5 -15 -2 -18 9 -9 19 4 14 18 -4 11 -6 11 -12 0z"/>
<path d="M3123 2193 c-143 -125 -289 -476 -313 -752 -12 -139 -15 -141 -154
-141 l-101 1 -28 62 c-17 40 -27 79 -27 110 0 33 -4 47 -14 47 -28 0 -35 -101
-12 -168 8 -22 12 -43 9 -46 -4 -3 -53 -6 -110 -6 -120 0 -138 10 -146 82 -25
220 -61 367 -114 472 -34 68 -114 185 -147 215 -24 23 -23 18 17 -70 108 -231
160 -400 172 -559 5 -60 14 -108 26 -132 35 -68 33 -68 335 -68 l272 0 31 26
c35 29 46 66 56 179 15 172 86 385 210 629 36 71 64 130 62 132 -2 3 -13 -3
-24 -13z"/>
<path d="M2695 1786 c-94 -30 -185 -97 -156 -115 9 -6 11 -18 7 -35 -9 -38 2
-51 25 -30 20 18 26 78 9 89 -13 8 -3 25 16 25 11 0 13 -9 8 -42 -7 -43 -7
-43 14 -25 11 10 26 32 32 48 13 31 33 34 38 7 2 -9 -6 -18 -17 -21 -10 -2
-24 -15 -31 -27 -11 -21 -10 -22 18 -15 17 3 33 2 37 -4 4 -7 -1 -9 -12 -5
-15 5 -16 4 -3 -5 17 -12 11 -14 -40 -11 -25 1 -42 -5 -54 -19 -21 -24 -15
-27 14 -9 15 9 22 10 31 1 19 -19 1 -31 -39 -27 -27 4 -43 -1 -62 -16 l-25
-21 63 4 c52 3 67 8 91 31 33 32 43 54 66 143 8 34 18 69 21 78 7 18 2 18 -51
1z"/>
<path d="M2294 1648 c18 -40 28 -52 45 -52 29 0 31 17 4 29 -25 11 -29 20 -13
30 6 3 13 -1 16 -10 4 -8 15 -20 25 -26 18 -9 19 -7 13 17 -5 20 -3 25 7 22 9
-3 13 -16 11 -36 -3 -22 2 -33 17 -41 14 -8 21 -8 24 2 4 7 6 6 6 -4 1 -17 31
-36 31 -19 0 22 -24 60 -31 49 -4 -6 -12 -8 -18 -4 -9 5 -9 10 -1 20 7 9 6 15
-3 23 -20 17 -76 38 -119 46 l-37 7 23 -53z"/>
<path d="M2500 1615 c-15 -39 -13 -58 6 -51 9 3 18 6 20 6 9 0 3 59 -6 65 -6
3 -15 -6 -20 -20z"/>
<path d="M2346 1581 c-19 -7 -19 -8 2 -29 17 -17 34 -22 75 -22 38 0 48 3 37
10 -8 6 -30 9 -47 8 -18 -1 -32 2 -30 7 1 6 8 9 15 9 7 -1 11 3 9 10 -4 14
-35 18 -61 7z"/>
<path d="M2237 1192 c-22 -25 -21 -58 2 -78 18 -16 18 -17 0 -35 -25 -25 -24
-61 1 -84 l20 -18 -20 -14 c-28 -19 -26 -67 2 -87 19 -14 62 -16 273 -16 211
0 254 2 273 16 27 19 29 57 3 83 -19 19 -19 20 0 37 10 9 19 28 19 41 0 12 -9
32 -19 42 -19 19 -19 20 0 37 23 21 25 57 3 78 -13 14 -53 16 -278 16 -242 0
-264 -1 -279 -18z m484 -68 c9 -11 10 -20 2 -32 -9 -15 -34 -17 -208 -17 -174
0 -199 2 -208 17 -8 12 -7 21 2 32 20 24 392 24 412 0z m-87 -139 c3 -8 3 -22
0 -30 -9 -22 -312 -22 -320 0 -4 8 -4 22 0 30 8 22 311 22 320 0z"/>
<path d="M2340 820 c16 -30 93 -70 148 -77 34 -4 65 0 97 11 48 16 115 60 115
75 0 5 -83 9 -185 10 -180 0 -185 0 -175 -19z"/>
<path d="M1312 4381 c-11 -7 -11 -17 2 -60 8 -28 12 -51 9 -51 -3 0 -22 14
-43 30 -23 18 -44 28 -54 24 -9 -3 -16 -9 -16 -13 1 -15 130 -100 145 -95 19
8 19 10 -1 92 -19 76 -24 84 -42 73z"/>
<path d="M3660 4368 c-31 -10 -60 -56 -60 -92 0 -48 59 -82 99 -57 11 7 11 10
0 17 -8 5 -22 9 -33 9 -24 0 -45 30 -30 45 6 6 22 1 47 -17 32 -23 40 -25 48
-13 19 30 21 60 6 84 -19 28 -43 36 -77 24z m50 -53 c0 -28 -7 -30 -34 -10
-21 16 -13 35 15 35 14 0 19 -7 19 -25z"/>
<path d="M3756 4238 c-36 -48 -44 -64 -34 -75 9 -11 19 -5 53 33 29 34 46 46
58 41 25 -10 21 -29 -18 -80 -31 -41 -33 -47 -18 -56 14 -7 24 0 55 42 52 69
48 117 -9 117 -15 0 -21 5 -17 14 3 7 -1 16 -9 19 -9 3 -31 -17 -61 -55z"/>
<path d="M1122 4247 c-29 -31 -28 -69 4 -106 32 -39 82 -43 114 -9 27 30 25
70 -6 107 -33 39 -80 42 -112 8z m79 -28 c24 -24 23 -72 -3 -77 -38 -7 -80 77
-45 91 21 9 26 8 48 -14z"/>
<path d="M1012 4154 c-12 -8 -22 -23 -22 -33 0 -11 -7 -18 -16 -17 -32 2 -24
-19 29 -78 45 -51 54 -57 65 -43 11 12 6 22 -27 61 -67 77 -29 107 44 36 34
-33 44 -38 53 -28 9 11 0 25 -40 66 -28 29 -53 52 -57 52 -4 0 -17 -7 -29 -16z"/>
<path d="M3889 4141 c-50 -50 -28 -131 35 -131 43 0 40 34 -3 35 -21 0 -38 32
-25 45 9 9 21 3 48 -21 35 -31 37 -31 51 -13 20 27 19 78 -3 97 -29 26 -70 21
-103 -12z m87 -16 c4 -8 3 -23 0 -32 -6 -15 -9 -15 -28 4 -21 22 -18 43 8 43
8 0 17 -7 20 -15z"/>
<path d="M4017 4032 c-54 -54 -62 -93 -24 -113 12 -7 28 -21 36 -32 13 -18 16
-16 72 39 44 44 56 61 48 71 -9 10 -21 4 -60 -28 -80 -68 -112 -29 -39 46 33
34 38 44 27 53 -10 9 -23 1 -60 -36z"/>
<path d="M877 4022 c-10 -10 -17 -24 -17 -31 0 -7 -4 -10 -9 -7 -5 3 -14 0
-20 -8 -9 -10 1 -24 43 -65 30 -28 59 -51 65 -51 27 0 19 26 -18 63 -23 22
-40 47 -39 56 6 31 40 24 83 -19 35 -35 44 -39 54 -26 10 11 3 22 -36 60 -52
49 -80 57 -106 28z"/>
<path d="M732 3950 c-9 -15 1 -27 74 -85 73 -58 88 -66 99 -54 12 12 2 25 -74
86 -79 64 -88 69 -99 53z"/>
<path d="M4123 3897 c-54 -45 -60 -54 -48 -67 13 -12 18 -11 42 12 43 40 69
50 83 33 6 -7 18 -11 26 -8 21 8 17 34 -6 40 -11 3 -18 9 -15 13 3 4 -1 12 -8
18 -9 8 -29 -3 -74 -41z"/>
<path d="M4215 3833 c-16 -16 -16 -30 1 -92 6 -19 4 -22 -12 -19 -13 2 -21 14
-24 37 -6 40 -25 52 -33 20 -8 -29 8 -65 36 -84 20 -13 29 -14 51 -4 28 13 33
39 16 84 -6 15 -7 31 -4 36 9 16 36 -12 31 -32 -4 -15 10 -29 29 -29 12 0 1
51 -17 74 -23 30 -50 33 -74 9z"/>
<path d="M4320 3704 c-47 -29 -89 -55 -95 -57 -6 -2 -5 -10 3 -20 13 -15 17
-14 51 8 56 34 91 37 91 6 0 -12 -19 -31 -49 -51 -33 -20 -48 -36 -44 -46 3
-8 8 -14 10 -14 11 0 108 63 115 74 15 22 8 54 -14 68 l-23 15 32 20 c28 16
31 22 20 35 -11 14 -22 10 -97 -38z"/>
<path d="M774 3709 c-8 -14 16 -31 34 -24 8 3 16 -4 19 -15 3 -11 9 -20 14
-20 15 0 10 16 -12 44 -22 27 -43 33 -55 15z"/>
<path d="M622 3698 c-7 -7 -12 -22 -12 -34 0 -12 -7 -24 -15 -28 -8 -3 -15 -9
-15 -14 0 -15 120 -84 135 -78 24 9 17 19 -33 51 -30 19 -47 37 -47 50 0 29
28 29 75 0 39 -25 70 -28 70 -6 0 13 -103 71 -127 71 -10 0 -24 -5 -31 -12z"/>
<path d="M4481 3591 c-12 -8 -13 -12 -2 -25 16 -19 43 -3 34 20 -6 16 -12 17
-32 5z"/>
<path d="M4375 3534 c-33 -18 -60 -38 -59 -43 1 -6 2 -16 3 -21 0 -6 33 7 71
27 42 23 69 44 68 52 -5 23 -20 20 -83 -15z"/>
<path d="M535 3535 c-14 -13 -25 -35 -25 -48 0 -53 67 -99 120 -82 11 4 27 20
36 37 20 38 4 82 -37 103 -40 21 -66 18 -94 -10z m87 -32 c22 -20 24 -51 3
-59 -43 -17 -100 31 -74 62 15 19 48 18 71 -3z"/>
<path d="M4378 3452 c-83 -41 -95 -49 -87 -65 9 -15 13 -16 39 -2 38 20 38 20
42 -12 4 -40 46 -58 90 -40 67 28 88 76 48 112 -10 9 -19 20 -18 24 2 16 -3
31 -9 30 -5 0 -52 -22 -105 -47z m107 -42 c0 -45 -78 -65 -92 -23 -7 19 40 54
67 51 19 -2 25 -9 25 -28z"/>
<path d="M406 3425 c-3 -9 1 -18 10 -22 20 -7 38 18 21 29 -18 11 -24 10 -31
-7z"/>
<path d="M465 3402 c-7 -20 -3 -23 74 -56 51 -23 65 -26 72 -15 11 18 6 22
-73 57 -57 26 -67 28 -73 14z"/>
<path d="M384 3334 c3 -8 6 -20 6 -25 0 -5 7 -9 15 -9 8 0 15 -7 15 -16 0 -11
6 -15 20 -11 11 3 41 -3 68 -13 33 -13 53 -15 65 -9 21 12 22 45 2 53 -9 3
-15 0 -15 -9 0 -12 -7 -11 -45 2 -32 11 -45 20 -45 34 0 20 -26 27 -32 8 -2
-7 -12 -7 -32 1 -24 9 -27 8 -22 -6z"/>
<path d="M4524 3246 c-67 -29 -88 -116 -38 -155 32 -25 60 -27 68 -5 8 22 9
21 -23 27 -43 9 -51 44 -17 73 40 35 93 42 119 16 18 -18 19 -25 9 -47 -7 -16
-9 -33 -4 -42 8 -13 11 -13 25 2 26 25 30 60 12 94 -25 50 -87 65 -151 37z"/>
<path d="M397 3222 c-21 -23 -22 -75 -2 -92 16 -13 17 -12 19 40 1 15 8 26 19
28 15 3 17 -2 11 -36 -7 -43 12 -72 46 -72 27 0 52 30 48 55 -3 11 1 27 9 33
25 24 16 29 -112 59 -12 3 -28 -3 -38 -15z m97 -38 c24 -9 21 -54 -4 -54 -16
0 -20 7 -20 30 0 32 1 33 24 24z"/>
<path d="M362 3074 c-14 -10 -22 -25 -22 -45 0 -28 -2 -30 -37 -27 -28 2 -38
-1 -38 -11 0 -10 33 -23 107 -42 102 -25 107 -25 111 -8 3 11 0 19 -5 19 -6 0
-4 8 5 18 36 39 7 93 -55 106 -41 8 -40 8 -66 -10z m97 -48 c22 -23 6 -46 -33
-46 -45 0 -70 24 -55 52 9 16 17 19 42 14 18 -4 38 -13 46 -20z"/>
<path d="M4571 3049 c-44 -9 -64 -31 -64 -70 0 -30 30 -69 54 -69 14 0 10 26
-6 40 -19 16 -19 46 0 54 11 4 18 -6 26 -39 13 -52 33 -58 67 -22 26 28 28 68
5 89 -26 22 -44 26 -82 17z m63 -52 c8 -12 7 -20 -1 -28 -16 -16 -33 -2 -33
27 0 28 17 28 34 1z"/>
<path d="M310 2902 c0 -16 11 -22 60 -31 54 -11 60 -14 60 -37 0 -25 -1 -26
-67 -22 -55 2 -68 0 -68 -12 0 -11 18 -17 68 -24 81 -10 101 0 95 51 -2 18 0
34 6 36 5 2 7 10 4 19 -4 10 -26 18 -60 22 -29 4 -63 10 -75 13 -18 4 -23 1
-23 -15z"/>
<path d="M4598 2887 c-55 -8 -68 -14 -68 -28 0 -16 8 -18 68 -16 62 2 67 0 70
-20 3 -22 1 -23 -89 -39 -30 -5 -36 -9 -32 -25 4 -12 12 -18 22 -15 9 2 37 7
64 11 59 8 86 40 66 77 -7 13 -12 33 -10 46 1 13 -3 21 -11 20 -7 0 -43 -6
-80 -11z"/>
<path d="M300 2730 c-48 -48 -8 -120 67 -120 33 0 46 6 62 26 25 32 26 52 5
82 -19 27 -44 29 -44 2 0 -11 5 -20 11 -20 6 0 9 -10 7 -22 -2 -19 -9 -23 -42
-23 -47 0 -72 28 -43 49 9 7 17 18 17 24 0 21 -20 22 -40 2z"/>
<path d="M4672 2725 c-7 -9 -31 -15 -56 -15 -47 0 -70 -17 -64 -47 4 -22 38
-31 38 -10 0 23 80 34 92 13 11 -20 38 -21 38 -1 0 8 11 17 25 21 20 5 23 9
14 20 -6 8 -20 14 -30 14 -11 0 -19 5 -19 10 0 15 -23 11 -38 -5z"/>
<path d="M4582 2614 c-28 -19 -30 -74 -4 -97 24 -22 32 -21 32 3 0 11 -5 20
-11 20 -18 0 -5 45 14 48 14 3 17 -4 17 -42 0 -44 1 -46 29 -46 30 0 71 38 71
65 0 7 -9 24 -21 39 -16 21 -29 26 -63 26 -23 0 -52 -7 -64 -16z m108 -48 c0
-13 -7 -26 -15 -30 -9 -3 -15 0 -15 8 0 8 -3 21 -6 30 -4 12 0 16 15 16 15 0
21 -6 21 -24z"/>
<path d="M298 2573 c-23 -6 -33 -45 -19 -71 8 -15 8 -21 -1 -24 -6 -2 -9 -12
-5 -21 5 -14 21 -17 87 -17 73 0 80 2 80 20 0 18 -7 20 -59 20 -61 0 -89 16
-77 45 4 11 22 15 71 15 58 0 65 2 65 20 0 18 -6 20 -62 19 -35 -1 -71 -3 -80
-6z"/>
<path d="M4560 2451 c0 -18 6 -21 46 -21 52 0 88 -15 80 -35 -6 -17 25 -29 35
-13 4 7 4 19 0 26 -5 8 -6 23 -4 33 4 15 0 19 -23 19 -16 0 -53 3 -81 6 -49 6
-53 5 -53 -15z"/>
<path d="M293 2403 c-65 -3 -73 -6 -73 -23 0 -17 7 -20 49 -20 26 0 76 3 110
6 50 6 61 10 61 25 0 16 -7 19 -37 17 -21 -1 -71 -4 -110 -5z"/>
<path d="M404 1866 c-51 -22 -74 -61 -74 -122 0 -47 4 -59 33 -90 28 -31 42
-37 84 -41 41 -4 59 -1 85 15 87 55 87 171 -1 229 -38 26 -81 29 -127 9z"/>
<path d="M4473 1860 c-123 -75 -76 -250 68 -250 37 0 53 6 84 33 34 29 38 39
42 88 5 66 -17 107 -70 132 -46 22 -85 21 -124 -3z"/>
<path d="M4133 1143 c-7 -3 -13 -13 -13 -23 0 -10 -10 -20 -22 -23 l-22 -6 24
-27 c51 -54 101 -87 113 -75 8 8 0 22 -33 56 -36 37 -41 47 -31 59 15 17 2 45
-16 39z"/>
<path d="M877 1042 c-64 -64 -76 -81 -64 -90 11 -9 20 -5 42 18 l28 29 34 -29
c40 -35 61 -37 97 -9 38 30 35 69 -10 119 -20 22 -39 40 -43 40 -4 0 -41 -35
-84 -78z m116 -40 c-15 -24 -28 -25 -54 -3 l-24 19 24 26 24 25 20 -26 c15
-18 18 -30 10 -41z"/>
<path d="M4042 1037 c-9 -10 -3 -22 28 -52 42 -41 51 -71 24 -82 -10 -4 -31 9
-59 37 -39 38 -46 42 -60 30 -15 -13 -12 -19 37 -62 29 -26 60 -48 69 -48 17
0 49 30 49 47 0 6 9 13 20 16 11 3 19 9 19 14 -1 4 -27 32 -59 61 -46 42 -59
50 -68 39z"/>
<path d="M1001 895 c-56 -60 -53 -115 5 -115 15 0 21 -6 20 -17 -2 -30 17 -20
68 34 30 33 46 58 42 68 -9 24 -22 18 -56 -25 -21 -27 -40 -40 -56 -40 -35 0
-31 29 12 78 32 37 38 62 15 62 -5 0 -27 -20 -50 -45z"/>
<path d="M3892 898 c-7 -7 -12 -18 -12 -25 0 -7 -6 -13 -14 -13 -29 0 -27 -22
7 -63 90 -109 105 -122 118 -110 10 10 9 19 -9 43 -17 23 -19 30 -8 30 23 0
46 29 46 59 0 58 -92 115 -128 79z m72 -47 c21 -23 18 -65 -4 -69 -23 -4 -60
35 -60 63 0 20 5 25 23 25 13 0 32 -9 41 -19z"/>
<path d="M1146 794 c-62 -81 -72 -104 -43 -104 15 1 132 152 132 170 0 34 -28
13 -89 -66z"/>
<path d="M3746 834 c-3 -9 -3 -21 1 -27 4 -7 8 -16 9 -22 0 -5 2 -15 2 -22 1
-7 8 -10 15 -8 6 3 23 -11 36 -31 31 -45 55 -58 82 -44 24 13 20 35 -6 35 -22
0 -78 66 -66 78 15 15 1 35 -20 30 -11 -3 -21 1 -25 11 -8 20 -20 21 -28 0z"/>
<path d="M3673 802 c-18 -11 1 -36 22 -28 9 3 15 11 13 18 -5 15 -20 20 -35
10z"/>
<path d="M1199 741 c-21 -21 -29 -39 -29 -65 0 -54 48 -89 90 -66 28 15 10 39
-25 32 -33 -6 -42 19 -19 57 12 20 26 31 41 31 21 0 25 -5 22 -26 -1 -8 22
-24 34 -24 19 0 5 50 -19 69 -36 28 -60 26 -95 -8z"/>
<path d="M3612 761 c-10 -6 1 -30 45 -99 55 -86 74 -104 87 -83 6 9 -103 190
-114 191 -3 0 -11 -4 -18 -9z"/>
<path d="M3705 750 c-4 -6 15 -40 40 -76 37 -52 50 -63 60 -54 12 10 7 23 -28
76 -41 61 -59 75 -72 54z"/>
<path d="M1343 659 c-58 -98 -60 -104 -39 -112 9 -4 25 12 45 44 20 32 37 49
50 49 33 0 34 -18 2 -74 -26 -45 -29 -55 -17 -65 11 -9 20 -2 44 37 43 71 47
87 22 112 -14 14 -29 20 -41 17 -19 -5 -19 -4 1 30 17 29 18 38 8 44 -7 5 -15
9 -18 9 -3 0 -29 -41 -57 -91z"/>
<path d="M3543 650 c-24 -14 -33 -27 -33 -45 0 -28 15 -26 38 7 15 21 42 24
42 5 0 -8 -11 -24 -25 -37 -27 -25 -32 -59 -13 -78 19 -19 56 -14 70 8 7 11
20 20 30 20 9 0 19 4 22 8 7 12 -71 132 -86 132 -7 0 -28 -9 -45 -20z m77 -91
c0 -23 -27 -36 -42 -21 -9 9 -7 17 7 32 20 22 35 18 35 -11z"/>
<path d="M3326 601 c-3 -5 15 -52 39 -104 l46 -96 57 25 c68 30 74 35 63 53
-7 11 -17 9 -55 -7 l-46 -21 -36 80 c-34 72 -54 93 -68 70z"/>
<path d="M1513 588 c-23 -11 -53 -64 -53 -92 0 -28 46 -66 79 -66 37 0 81 49
81 91 0 28 -29 69 -49 69 -5 0 -15 2 -23 4 -7 3 -23 0 -35 -6z m63 -43 c17
-43 -31 -100 -62 -74 -18 15 -18 39 2 67 17 25 52 29 60 7z"/>
<path d="M1645 466 c-3 -41 -4 -80 0 -86 12 -19 33 -10 55 25 12 19 24 35 27
35 2 0 3 -21 2 -47 -5 -70 18 -68 76 7 37 48 45 64 35 73 -12 12 -20 5 -63
-54 -17 -24 -17 -24 -11 28 5 44 3 54 -11 59 -10 4 -21 -1 -30 -12 -45 -63
-46 -63 -43 -9 2 39 -1 51 -14 53 -13 2 -17 -11 -23 -72z"/>
<path d="M1863 421 c-22 -75 -27 -108 -19 -113 18 -13 24 -9 35 22 14 40 29
38 37 -6 6 -32 27 -54 40 -42 2 3 0 27 -6 54 -11 47 -10 50 14 69 14 12 26 24
26 28 0 13 -35 7 -58 -9 -13 -9 -25 -14 -28 -12 -2 3 3 27 11 54 8 27 15 50
15 50 0 1 -8 4 -19 7 -16 4 -23 -10 -48 -102z"/>
<path d="M3078 454 c-30 -16 -37 -51 -16 -72 7 -7 32 -12 56 -12 36 0 43 -3
40 -17 -2 -13 -14 -18 -38 -19 -51 -1 -54 -2 -40 -19 26 -32 106 -9 117 33 8
35 -26 62 -79 62 -36 0 -39 2 -27 16 8 10 21 13 36 9 32 -8 47 3 32 21 -15 18
-46 17 -81 -2z"/>
<path d="M2137 449 c-47 -28 -65 -146 -27 -187 11 -12 32 -25 45 -28 33 -8 83
13 91 38 9 30 -16 41 -39 17 -20 -22 -47 -25 -65 -7 -15 15 -16 79 -1 112 18
39 73 42 84 5 8 -23 45 -26 45 -4 0 9 -11 27 -25 40 -26 27 -75 33 -108 14z"/>
<path d="M2977 403 c4 -16 8 -46 8 -68 0 -33 -3 -40 -20 -40 -16 0 -23 12 -35
58 -11 44 -18 57 -33 57 -16 0 -18 -5 -12 -32 25 -122 46 -146 96 -109 16 12
29 17 29 11 0 -5 7 -10 15 -10 20 0 20 6 -10 138 -3 14 -13 22 -25 22 -17 0
-19 -4 -13 -27z"/>
<path d="M2770 390 c-8 -5 -23 -7 -33 -4 -9 3 -19 -1 -22 -8 -6 -15 19 -205
28 -214 12 -13 27 9 27 40 0 30 2 33 25 28 39 -7 65 22 65 73 0 69 -47 113
-90 85z m45 -80 c0 -38 -3 -45 -20 -45 -24 0 -46 42 -38 74 4 17 12 21 32 19
24 -3 26 -7 26 -48z"/>
<path d="M3243 374 c-4 -10 1 -22 11 -29 10 -8 14 -19 10 -30 -5 -13 -3 -16 7
-13 19 6 22 29 10 61 -12 30 -29 35 -38 11z"/>
<path d="M2309 364 c-10 -13 -10 -17 2 -24 8 -6 18 -5 23 0 15 15 46 12 46 -5
0 -8 -14 -17 -35 -21 -43 -8 -57 -25 -53 -61 3 -26 7 -28 48 -29 25 -1 52 -5
61 -9 14 -5 17 4 18 66 1 41 -3 77 -10 85 -16 19 -83 18 -100 -2z m71 -88 c0
-7 -7 -19 -15 -26 -21 -17 -51 6 -34 26 15 18 49 18 49 0z"/>
<path d="M2506 364 c-9 -8 -16 -11 -16 -5 0 6 -7 11 -15 11 -12 0 -15 -16 -15
-80 0 -73 2 -80 20 -80 18 0 20 7 20 64 0 45 4 65 14 69 24 9 36 -15 36 -75 0
-51 2 -58 20 -58 18 0 20 7 20 65 0 51 4 67 16 72 23 9 34 -15 34 -74 0 -47 2
-53 21 -53 21 0 22 3 16 66 -4 37 -12 73 -18 80 -14 17 -51 18 -67 2 -9 -9
-15 -9 -24 0 -17 17 -44 15 -62 -4z"/>
</g>
</svg>
